<svg width="250" height="279" viewBox="0 0 250 279" fill="none" xmlns="http://www.w3.org/2000/svg">
<path d="M125.028 76.4415C89.5566 76.4415 60.9453 104.372 60.9453 139C60.9453 173.628 89.5566 201.559 125.028 201.559C160.499 201.559 189.11 173.628 189.11 139C189.11 104.372 160.499 76.4415 125.028 76.4415ZM125.028 179.671C102.105 179.671 83.3659 161.432 83.3659 139C83.3659 116.568 102.05 98.3288 125.028 98.3288C148.006 98.3288 166.69 116.568 166.69 139C166.69 161.432 147.95 179.671 125.028 179.671ZM206.679 73.8825C206.679 81.995 199.986 88.4741 191.732 88.4741C183.422 88.4741 176.785 81.9405 176.785 73.8825C176.785 65.8245 183.477 59.291 191.732 59.291C199.986 59.291 206.679 65.8245 206.679 73.8825ZM249.122 88.6919C248.173 69.1457 243.6 51.8319 228.932 37.567C214.32 23.3021 196.584 18.8376 176.562 17.8575C155.926 16.7142 94.0742 16.7142 73.4384 17.8575C53.4718 18.7831 35.7362 23.2477 21.068 37.5126C6.39989 51.7774 1.88232 69.0913 0.878416 88.6374C-0.292805 108.782 -0.292805 169.163 0.878416 189.308C1.82655 208.854 6.39989 226.168 21.068 240.433C35.7362 254.698 53.4161 259.162 73.4384 260.142C94.0742 261.286 155.926 261.286 176.562 260.142C196.584 259.217 214.32 254.752 228.932 240.433C243.544 226.168 248.118 208.854 249.122 189.308C250.293 169.163 250.293 108.837 249.122 88.6919ZM222.462 210.923C218.112 221.595 209.69 229.816 198.703 234.117C182.25 240.487 143.21 239.017 125.028 239.017C106.846 239.017 67.7496 240.433 51.3525 234.117C40.4211 229.87 31.9994 221.649 27.5934 210.923C21.068 194.862 22.5739 156.749 22.5739 139C22.5739 121.251 21.1238 83.0839 27.5934 67.0768C31.9437 56.4053 40.3653 48.184 51.3525 43.8827C67.8054 37.5126 106.846 38.9826 125.028 38.9826C143.21 38.9826 182.306 37.567 198.703 43.8827C209.635 48.1295 218.056 56.3509 222.462 67.0768C228.988 83.1383 227.482 121.251 227.482 139C227.482 156.749 228.988 194.916 222.462 210.923Z" fill="white"/>
</svg>
