<svg width="93" height="87" viewBox="0 0 93 87" fill="none" xmlns="http://www.w3.org/2000/svg">
<path d="M46.5363 21.6615C33.3337 21.6615 22.6843 31.4806 22.6843 43.6541C22.6843 55.8275 33.3337 65.6466 46.5363 65.6466C59.739 65.6466 70.3883 55.8275 70.3883 43.6541C70.3883 31.4806 59.739 21.6615 46.5363 21.6615ZM46.5363 57.9521C38.0044 57.9521 31.0294 51.54 31.0294 43.6541C31.0294 35.7681 37.9837 29.356 46.5363 29.356C55.089 29.356 62.0433 35.7681 62.0433 43.6541C62.0433 51.54 55.0683 57.9521 46.5363 57.9521ZM76.9274 20.7619C76.9274 23.6138 74.4363 25.8916 71.364 25.8916C68.2709 25.8916 65.8006 23.5947 65.8006 20.7619C65.8006 17.9291 68.2917 15.6322 71.364 15.6322C74.4363 15.6322 76.9274 17.9291 76.9274 20.7619ZM92.725 25.9681C92.3721 19.0966 90.6698 13.0099 85.2102 7.99508C79.7714 2.98024 73.17 1.41071 65.7176 1.06617C58.0368 0.664221 35.0151 0.664221 27.3343 1.06617C19.9026 1.39156 13.3013 2.9611 7.84169 7.97594C2.38209 12.9908 0.700614 19.0775 0.326953 25.949C-0.108984 33.031 -0.108984 54.258 0.326953 61.34C0.679855 68.2115 2.38209 74.2982 7.84169 79.3131C13.3013 84.3279 19.8819 85.8974 27.3343 86.242C35.0151 86.6439 58.0368 86.6439 65.7176 86.242C73.17 85.9166 79.7714 84.347 85.2102 79.3131C90.6491 74.2982 92.3513 68.2115 92.725 61.34C93.1609 54.258 93.1609 33.0502 92.725 25.9681ZM82.8022 68.9388C81.183 72.6904 78.0484 75.5806 73.9589 77.0927C67.835 79.3322 53.3037 78.8154 46.5363 78.8154C39.7689 78.8154 25.2169 79.3131 19.1138 77.0927C15.045 75.5998 11.9104 72.7095 10.2705 68.9388C7.84169 63.2923 8.40218 49.8939 8.40218 43.6541C8.40218 37.4142 7.86245 23.9966 10.2705 18.3693C11.8897 14.6177 15.0243 11.7275 19.1138 10.2154C25.2377 7.97594 39.7689 8.49274 46.5363 8.49274C53.3037 8.49274 67.8558 7.99508 73.9589 10.2154C78.0276 11.7084 81.1622 14.5986 82.8022 18.3693C85.231 24.0158 84.6705 37.4142 84.6705 43.6541C84.6705 49.8939 85.231 63.3115 82.8022 68.9388Z" fill="white"/>
</svg>
