<svg width="94" height="91" viewBox="0 0 94 91" fill="none" xmlns="http://www.w3.org/2000/svg">
<path d="M21.0451 91H1.55268V30.2453H21.0451V91ZM11.2884 21.9578C5.0567 21.9578 0 16.9609 0 10.9281C0 8.02981 1.18931 5.25019 3.30629 3.20077C5.42328 1.15135 8.29452 0 11.2884 0C14.2823 0 17.1535 1.15135 19.2705 3.20077C21.3875 5.25019 22.5768 8.02981 22.5768 10.9281C22.5768 16.9609 17.5201 21.9578 11.2884 21.9578ZM93.979 91H74.5286V61.425C74.5286 54.3766 74.3817 45.3375 64.3942 45.3375C54.2598 45.3375 52.7071 52.9953 52.7071 60.9172V91H33.2357V30.2453H51.9308V38.5328H52.2036C54.8054 33.7594 61.163 28.7219 70.6469 28.7219C90.3701 28.7219 94 41.2953 94 57.6266V91H93.979Z" fill="white"/>
</svg>
